<svg xmlns="http://www.w3.org/2000/svg" viewBox="0 0 74.66 49.35"><defs><style>.cls-1{fill:#fff;fill-rule:evenodd;}</style></defs><title>Asset 4</title><g id="Layer_2" data-name="Layer 2"><g id="Layer_1-2" data-name="Layer 1"><path class="cls-1" d="M74.64,43.41a1.75,1.75,0,0,1-.15,1,6.48,6.48,0,0,1-1.73,3.09h0a6.45,6.45,0,0,1-4.57,1.9H6.47a6.49,6.49,0,0,1-6.3-5,1.76,1.76,0,0,1-.15-1c0-.17,0-.35,0-.53V6.47A6.45,6.45,0,0,1,1.8,2l.1-.11A6.45,6.45,0,0,1,6.47,0H68.19a6.45,6.45,0,0,1,4.56,1.9h0a6.45,6.45,0,0,1,1.9,4.57V42.88c0,.18,0,.35,0,.53ZM3.53,9.45l21.29,16.1.06,0,10.67,8.06a2.9,2.9,0,0,0,3.55,0L49.77,25.6l.07-.05L71.13,9.45v-3a2.93,2.93,0,0,0-.86-2.08h0a2.93,2.93,0,0,0-2.08-.86H6.47a2.93,2.93,0,0,0-2.08.86l-.07.07a2.93,2.93,0,0,0-.79,2v3Zm67.6,4.42L53.79,27l17.34,13.1V13.87ZM50.87,29.19l-9.64,7.29a6.4,6.4,0,0,1-7.8,0l-9.64-7.29L3.87,44.24a3,3,0,0,0,.53.71,2.93,2.93,0,0,0,2.08.86H68.19A2.93,2.93,0,0,0,70.27,45h0a3,3,0,0,0,.53-.71L50.87,29.19ZM20.87,27,3.53,13.87V40.08Z"/></g></g></svg>