<svg xmlns="http://www.w3.org/2000/svg" viewBox="0 0 129.45 52.54"><defs><style>.cls-1{fill:#ed1c24;}</style></defs><title>Asset 1</title><g id="Layer_2" data-name="Layer 2"><g id="Layer_1-2" data-name="Layer 1"><path class="cls-1" d="M52,9.09H39.7v4.34h3.64V36.66h9.9s7.17.55,7.17-10.06V17.07S61.22,9.09,52,9.09Zm4.09,9.7v6.84c0,7.78-4,7.3-4,7.3H47.17V13.43H52C56.52,13.43,56.11,18.79,56.11,18.79Z"/><path class="cls-1" d="M123.8,21.27A25.28,25.28,0,0,1,120.13,19a3.83,3.83,0,0,1-1.55-3c0-2.63,1.59-3.41,3.29-3.45a2.88,2.88,0,0,1,2.58,1.08,5.45,5.45,0,0,1,.71,3.13v2h4.08V16.84c0-.2,0-.41,0-.61,0-2.55-.63-4.47-1.89-5.74a7.1,7.1,0,0,0-5.27-1.84,7.64,7.64,0,0,0-5.38,2,7.56,7.56,0,0,0-2.17,5.67c0,4.22,2.94,6.19,5.65,7.74a23.81,23.81,0,0,1,3.67,2.34,3.92,3.92,0,0,1,1.55,3.08,3.75,3.75,0,0,1-1.1,3,4.15,4.15,0,0,1-2.79.85c-1.82,0-3.58-.89-3.62-4.29v-.8H114v.42c0,.22,0,.07,0,.34a10.07,10.07,0,0,0,1.14,5.11c1,1.7,2.92,3,6.2,3h.18A8.53,8.53,0,0,0,127,35.4c1.49-1.23,2.42-3.23,2.42-6.11,0-4.42-2.93-6.48-5.65-8"/><polygon class="cls-1" points="103.53 9.07 97.84 29.1 92.11 9.07 82.99 9.07 82.99 13.38 85.56 13.38 85.56 36.67 89.88 36.67 89.88 13.43 95.69 36.64 95.69 36.64 99.99 36.64 99.99 36.64 105.85 13.43 105.85 36.67 110.16 36.67 110.16 9.07 103.53 9.07"/><path class="cls-1" d="M75,9.26V9.09H65.77v4.33H69L62.35,36.66h4.3l1.64-5.76h8.57l1.64,5.76h4.29ZM69.52,26.59l3.06-13.16,3.06,13.16Z"/><path class="cls-1" d="M29,.21V0H16.71V5.74H21L12.19,36.66h5.71L20.07,29H31.48l2.17,7.65h5.71ZM21.71,23.27l4.07-16.7,4.06,16.7Z"/><path class="cls-1" d="M75.78,42.1h-9V52.24h3.31V49.7h6.59c2.34,0,3-1.73,3-3.24v-.87C79.68,43.59,78.93,42.1,75.78,42.1Zm.51,4a1,1,0,0,1-1.08,1.08H70.06V44.63h4.87c1,0,1.36.4,1.36,1.08Z"/><path class="cls-1" d="M12.19,45.61c0-3.07,1.84-3.8,4.92-3.8h4c4.88,0,5.51,1,5.48,4H23.19v-.29c0-.75-.59-1-1.6-1H17.85c-1.8,0-2.14.8-2.14,2.1v1.13c0,1.52.34,2.1,2,2.1h3.66c1.54,0,2-.15,2-1.45h3.43v1c0,1.77-.68,3.16-4.12,3.16H17.11c-3.09,0-4.92-.72-4.92-3.79Z"/><path class="cls-1" d="M39,41.81H33.51c-3.09,0-4.92.72-4.92,3.8v3.13c0,3.08,1.83,3.8,4.92,3.8H39c3.09,0,4.92-.72,4.92-3.8V45.61C43.92,42.53,42.09,41.81,39,41.81Zm1.41,5.93c0,1.53-.35,2.1-2,2.1H34.06c-1.62,0-2-.58-2-2.1V46.61c0-1.3.34-2.1,2.15-2.1h4c1.8,0,2.15.81,2.15,2.1Z"/><polygon class="cls-1" points="59.01 41.93 55.14 48.68 51.26 41.93 46 41.93 46 52.42 49.34 52.42 49.34 44.88 49.37 44.88 53.85 52.42 56.42 52.42 60.91 44.88 60.94 44.88 60.94 52.42 64.27 52.42 64.27 41.93 59.01 41.93"/><path class="cls-1" d="M89.77,41.93H85.31l-6,10.48H83.1l1-1.85H91l1.06,1.85h3.81Zm-4.4,6.37,2.16-3.94,2.22,3.94Z"/><polygon class="cls-1" points="108.93 41.93 108.93 49.55 108.89 49.55 102.46 41.93 97.15 41.93 97.15 52.42 100.58 52.42 100.58 44.8 100.61 44.8 107.04 52.42 112.35 52.42 112.35 41.93 108.93 41.93"/><polygon class="cls-1" points="125.29 41.93 121.53 46.22 117.76 41.93 113.63 41.93 119.81 48.77 119.81 52.42 123.24 52.42 123.24 48.77 129.43 41.93 125.29 41.93"/><polygon class="cls-1" points="0 0.05 0 0.61 1.83 0.61 1.83 5.7 2.47 5.7 2.47 0.61 4.3 0.61 4.3 0.05 0 0.05"/><polygon class="cls-1" points="9.45 5.7 8.81 5.7 8.81 3.1 5.5 3.1 5.5 5.7 4.87 5.7 4.87 0.05 5.5 0.05 5.5 2.53 8.81 2.53 8.81 0.05 9.45 0.05 9.45 5.7"/><polygon class="cls-1" points="10.93 2.53 13.79 2.53 13.79 3.06 10.93 3.06 10.93 5.13 13.91 5.13 13.91 5.69 10.29 5.69 10.29 0.05 13.91 0.05 13.91 0.61 10.93 0.61 10.93 2.53"/></g></g></svg>