<svg xmlns="http://www.w3.org/2000/svg" viewBox="0 0 37 37"><defs><style>.cls-1{fill:none;stroke:#fff;stroke-width:2px;}.cls-2{fill:#fff;}</style></defs><title>Asset 2</title><g id="Layer_2" data-name="Layer 2"><g id="Layer_1-2" data-name="Layer 1"><g id="Icon"><g id="Circle"><path id="path-7" class="cls-1" d="M1,18.5A17.5,17.5,0,1,1,18.5,36,17.5,17.5,0,0,1,1,18.5Z"/></g><path id="Icon-2" data-name="Icon" class="cls-2" d="M13.09,17l5,4.84a.65.65,0,0,0,.91,0l5-4.84a.31.31,0,0,0,0-.44l-.45-.44a.33.33,0,0,0-.45,0l-4.27,4.17a.33.33,0,0,1-.45,0L14,16.09a.33.33,0,0,0-.45,0l-.45.44a.31.31,0,0,0,0,.44"/></g></g></g></svg>