<svg xmlns="http://www.w3.org/2000/svg" viewBox="0 0 37 37"><defs><style>.cls-1{fill:none;stroke:#fff;stroke-width:2px;}.cls-2{fill:#fff;}</style></defs><title>Asset 6</title><g id="Layer_2" data-name="Layer 2"><g id="Layer_1-2" data-name="Layer 1"><g id="Icon"><g id="Circle"><path id="path-7" class="cls-1" d="M18.5,36A17.5,17.5,0,1,1,36,18.5,17.5,17.5,0,0,1,18.5,36Z"/></g><path id="Icon-2" data-name="Icon" class="cls-2" d="M17,23.91l4.84-5a.65.65,0,0,0,0-.91l-4.84-5a.31.31,0,0,0-.44,0l-.44.45a.33.33,0,0,0,0,.45l4.17,4.27a.33.33,0,0,1,0,.45L16.09,23a.33.33,0,0,0,0,.45l.44.45a.31.31,0,0,0,.44,0"/></g></g></g></svg>