<svg xmlns="http://www.w3.org/2000/svg" viewBox="0 0 80.27 60.63"><defs><style>.cls-1{fill:#fff;}</style></defs><title>Asset 5</title><g id="Layer_2" data-name="Layer 2"><g id="Layer_1-2" data-name="Layer 1"><path class="cls-1" d="M79.19,7.11l-6-6A3.77,3.77,0,0,0,70.22,0a4.38,4.38,0,0,0-2.81,1.29L56.56,12.15V11.4a5.66,5.66,0,0,0-1.67-4h0a5.67,5.67,0,0,0-4-1.67H5.69A5.69,5.69,0,0,0,0,11.4V43.23a5.67,5.67,0,0,0,1.66,4h0a5.69,5.69,0,0,0,3.14,1.6L3,58.56a1.76,1.76,0,0,0,2.79,1.72l15-11.36H50.87a5.66,5.66,0,0,0,3.9-1.56l.12-.11a5.67,5.67,0,0,0,1.67-4V35h0a1.75,1.75,0,0,0,.68-.42L79,12.85a4.38,4.38,0,0,0,1.28-2.8A3.77,3.77,0,0,0,79.19,7.11ZM53,43.23a2.15,2.15,0,0,1-.63,1.52l-.06.07a2.15,2.15,0,0,1-1.46.56H20.2a1.76,1.76,0,0,0-1.2.47L7.31,54.73l1.35-7.26a1.76,1.76,0,0,0-1.41-2l-.32,0H5.69a2.15,2.15,0,0,1-1.52-.63h0a2.15,2.15,0,0,1-.63-1.52V11.4A2.16,2.16,0,0,1,5.69,9.25H50.87A2.15,2.15,0,0,1,53,11.4V15a1.75,1.75,0,0,0,.09.57L45.71,23a1.76,1.76,0,0,0-.39.59L40,36.65h0a2.81,2.81,0,0,0-.17,1.59,2.77,2.77,0,0,0,.76,1.45h0a2.76,2.76,0,0,0,1.44.76,2.78,2.78,0,0,0,1.59-.17L53,36.43ZM76.49,10.37,55,31.82l-1,.39-.1,0-6.42,2.62h0l-3.62,1.48,1.44-3.54h0l3.09-7.57L69.91,3.79a.85.85,0,0,1,.53-.26.3.3,0,0,1,.22.06l6,6a.3.3,0,0,1,.06.22A.86.86,0,0,1,76.49,10.37Z"/><path class="cls-1" d="M70.37,7.53a1.74,1.74,0,0,0-.27.22L50.53,27.32,53,29.75,72.65,10l.11-.13Z"/></g></g></svg>