<svg xmlns="http://www.w3.org/2000/svg" viewBox="0 0 61.4 70.24"><defs><style>.cls-1{fill:#fff;fill-rule:evenodd;}</style></defs><title>Asset 3</title><g id="Layer_2" data-name="Layer 2"><g id="Layer_1-2" data-name="Layer 1"><path class="cls-1" d="M23,47.31l-9.5,12,7.53,6a6.18,6.18,0,0,0,8.63-.91,172.7,172.7,0,0,0,15.86-23,172.81,172.81,0,0,0,12-25.22A6.18,6.18,0,0,0,54,8.33l-9-3.5L39.29,19.08l5.06,2a1.76,1.76,0,0,1,1,2.27l-.06.13c-2.12,4.64-4.51,9.27-7.12,13.8h0c-2.61,4.52-5.43,8.93-8.41,13.1a1.76,1.76,0,0,1-2.45.41L23,47.31ZM25.88.08A1.76,1.76,0,0,1,27,3.43,33.8,33.8,0,0,0,4.8,44.8a1.76,1.76,0,1,1-3.39,1A37.33,37.33,0,0,1,25.88.08Zm1.83,10.42A1.76,1.76,0,1,1,29,13.79,23.38,23.38,0,0,0,14.6,41.06a1.76,1.76,0,0,1-3.42.81A26.86,26.86,0,0,1,27.71,10.51Zm-18.06,48L21.34,43.72a1.76,1.76,0,0,1,2.47-.27L28,46.79c2.51-3.62,4.91-7.41,7.16-11.3s4.32-7.85,6.2-11.84l-5-1.94a1.76,1.76,0,0,1-1-2.28l7-17.5a1.76,1.76,0,0,1,2.27-1L55.22,5.05a9.71,9.71,0,0,1,5.55,12.46A176.25,176.25,0,0,1,48.56,43.24,176.28,176.28,0,0,1,32.38,66.69a9.71,9.71,0,0,1-13.57,1.42L9.93,61A1.76,1.76,0,0,1,9.65,58.53Z"/></g></g></svg>